<?xml version="1.0" standalone="no"?>
<!DOCTYPE svg PUBLIC "-//W3C//DTD SVG 20010904//EN"
 "http://www.w3.org/TR/2001/REC-SVG-20010904/DTD/svg10.dtd">
<svg version="1.0" xmlns="http://www.w3.org/2000/svg"
 width="500.000000pt" height="500.000000pt" viewBox="0 0 500.000000 500.000000"
 preserveAspectRatio="xMidYMid meet">
<metadata>
Created by potrace 1.15, written by Peter Selinger 2001-2017
</metadata>
<g transform="translate(0.000000,500.000000) scale(0.100000,-0.100000)"
fill="#000000" stroke="none">
<path d="M1468 4593 l-958 -3 -2 -953 c-2 -523 -2 -1392 0 -1929 l2 -978 1930
0 1930 0 0 1930 0 1930 -952 0 c-524 0 -962 1 -973 3 -11 1 -451 1 -977 0z
m-188 -393 l0 -380 -380 0 -380 0 0 380 0 380 380 0 380 0 0 -380z m770 0 l0
-380 -380 0 -380 0 0 380 0 380 380 0 380 0 0 -380z m370 0 l0 -380 -180 0
-180 0 0 380 0 380 180 0 180 0 0 -380z m400 0 l0 -380 -185 0 -185 0 0 380 0
380 185 0 185 0 0 -380z m770 19 l0 -361 -22 -19 c-22 -17 -46 -18 -380 -19
l-358 0 0 380 0 380 380 0 380 0 0 -361z m770 -19 l0 -380 -362 0 c-322 0
-363 2 -380 17 -17 15 -18 40 -18 380 l0 363 380 0 380 0 0 -380z m-3080 -770
l0 -380 -380 0 -380 0 0 380 0 380 380 0 380 0 0 -380z m770 20 c0 -347 -1
-361 -20 -380 -19 -19 -33 -20 -380 -20 l-360 0 0 380 0 380 380 0 380 0 0
-360z m568 164 l202 -196 0 -184 0 -184 -366 0 c-338 0 -368 1 -380 18 -11 13
-13 94 -14 380 l0 362 178 0 179 0 201 -196z m202 19 l0 -177 -152 149 c-84
82 -166 161 -183 177 l-30 28 183 0 182 0 0 -177z m750 160 c19 -17 20 -29 20
-380 l0 -363 -181 0 -182 0 -198 197 -199 197 0 183 0 183 360 0 c326 0 362
-2 380 -17z m790 -363 l0 -380 -380 0 -380 0 0 365 c0 279 3 369 13 380 10 12
75 14 380 15 l367 0 0 -380z m-1350 -205 l175 -175 -178 0 -177 0 0 175 c0 96
1 175 3 175 1 0 81 -79 177 -175z m-1730 -360 l0 -175 -380 0 -380 0 0 175 0
175 380 0 380 0 0 -175z m753 161 c16 -12 17 -42 17 -380 l0 -366 -187 1 -188
0 -192 204 -193 203 0 176 0 176 363 0 c285 -1 366 -3 380 -14z m787 -366 l0
-380 -380 0 -380 0 0 368 c0 273 3 371 12 380 9 9 107 12 380 12 l368 0 0
-380z m380 0 l0 -380 -185 0 -185 0 0 380 0 380 185 0 185 0 0 -380z m390 0
l0 -380 -180 0 -180 0 0 380 0 380 180 0 180 0 0 -380z m770 0 l0 -380 -380 0
-380 0 0 380 0 380 380 0 380 0 0 -380z m-3080 -190 l0 -190 -380 0 -380 0 0
190 0 190 380 0 380 0 0 -190z m350 -182 c0 -5 -76 -8 -170 -8 l-170 0 0 183
1 182 169 -175 c93 -96 169 -178 170 -182z m-350 -373 l0 -354 -25 -26 -26
-25 -354 0 -355 0 0 380 0 380 380 0 380 0 0 -355z m561 153 c107 -112 197
-204 201 -206 5 -2 8 -82 8 -178 l0 -174 -360 0 c-347 0 -361 1 -380 20 -19
19 -20 33 -20 380 l0 360 179 0 179 0 193 -202z m209 13 l0 -190 -102 107
c-57 59 -139 144 -182 189 l-80 83 182 0 182 0 0 -189z m770 -1 l0 -190 -380
0 -380 0 0 190 0 190 380 0 380 0 0 -190z m190 13 c-96 -98 -176 -180 -177
-182 -2 -2 -3 77 -3 177 l0 182 177 0 177 0 -174 -177z m580 -190 l0 -368
-275 275 -275 275 92 92 93 93 182 0 183 0 0 -367z m770 -13 l0 -380 -377 2
-378 3 -3 378 -2 377 380 0 380 0 0 -380z m-1060 -105 l275 -275 -373 0 -372
0 0 178 0 178 91 97 c50 53 94 97 97 97 4 0 131 -124 282 -275z m-480 -100 l0
-175 -380 0 -380 0 0 175 0 175 380 0 380 0 0 -175z m-1562 -204 l22 -19 0
-361 0 -361 -380 0 -380 0 0 380 0 380 358 0 c334 -1 358 -2 380 -19z m792
-361 l0 -380 -380 0 -380 0 0 362 c0 322 2 363 17 380 15 17 40 18 380 18
l363 0 0 -380z m770 0 l0 -380 -380 0 -380 0 0 380 0 380 380 0 380 0 0 -380z
m770 0 l0 -380 -380 0 -380 0 0 380 0 380 380 0 380 0 0 -380z m770 8 l0 -373
-53 55 c-29 30 -195 198 -367 373 l-314 317 367 0 367 0 0 -372z m-178 -230
l150 -158 -366 0 -366 0 0 372 0 373 216 -215 c118 -118 283 -286 366 -372z"/>
</g>
</svg>
